<svg width="500" height="500" viewBox="0 0 500 500" fill="none" xmlns="http://www.w3.org/2000/svg">
<rect width="500" height="500" fill="white"/>
<rect width="500" height="500" fill="#0058BD"/>
<g filter="url(#filter0_i_2_6)">
<rect x="25" y="25" width="450" height="450" fill="#0058BD"/>
</g>
<g filter="url(#filter1_d_2_6)">
<path d="M113.2 359V131C113.2 125.133 110.667 121.4 105.6 119.8C100.533 117.933 94.4 117 87.2 117H84V103H206.4V117H203.2C196.267 117 190.133 117.933 184.8 119.8C179.733 121.4 177.2 125.133 177.2 131V359C177.2 364.867 179.733 368.733 184.8 370.6C190.133 372.2 196.267 373 203.2 373H206.4V387H84V373H87.2C94.4 373 100.533 372.2 105.6 370.6C110.667 368.733 113.2 364.867 113.2 359ZM386.988 199.8C386.988 198.2 385.654 196.867 382.988 195.8C380.321 194.733 376.988 193.933 372.988 193.4C369.254 192.6 365.388 192.2 361.388 192.2H360.588V179H422.988V192.2H422.587C419.388 192.2 416.321 192.867 413.387 194.2C410.721 195.267 408.321 197.133 406.188 199.8C404.054 202.467 402.054 205.933 400.188 210.2L335.388 387H293.788L226.588 205.4C225.254 201.667 223.654 199 221.788 197.4C219.921 195.533 217.654 194.2 214.988 193.4C212.321 192.6 209.388 192.2 206.188 192.2H205.788V179H312.188V192.2H311.388C307.654 192.2 303.654 192.333 299.388 192.6C295.121 192.867 291.521 193.267 288.588 193.8C285.921 194.333 284.588 195.133 284.588 196.2L341.788 356.2L326.988 365.4L386.988 199.8Z" fill="#F0F7FF"/>
</g>
<defs>
<filter id="filter0_i_2_6" x="25" y="25" width="450" height="450" filterUnits="userSpaceOnUse" color-interpolation-filters="sRGB">
<feFlood flood-opacity="0" result="BackgroundImageFix"/>
<feBlend mode="normal" in="SourceGraphic" in2="BackgroundImageFix" result="shape"/>
<feColorMatrix in="SourceAlpha" type="matrix" values="0 0 0 0 0 0 0 0 0 0 0 0 0 0 0 0 0 0 127 0" result="hardAlpha"/>
<feMorphology radius="5" operator="erode" in="SourceAlpha" result="effect1_innerShadow_2_6"/>
<feOffset/>
<feGaussianBlur stdDeviation="10"/>
<feComposite in2="hardAlpha" operator="arithmetic" k2="-1" k3="1"/>
<feColorMatrix type="matrix" values="0 0 0 0 0 0 0 0 0 0 0 0 0 0 0 0 0 0 0.25 0"/>
<feBlend mode="normal" in2="shape" result="effect1_innerShadow_2_6"/>
</filter>
<filter id="filter1_d_2_6" x="34" y="53" width="438.988" height="384" filterUnits="userSpaceOnUse" color-interpolation-filters="sRGB">
<feFlood flood-opacity="0" result="BackgroundImageFix"/>
<feColorMatrix in="SourceAlpha" type="matrix" values="0 0 0 0 0 0 0 0 0 0 0 0 0 0 0 0 0 0 127 0" result="hardAlpha"/>
<feOffset/>
<feGaussianBlur stdDeviation="25"/>
<feComposite in2="hardAlpha" operator="out"/>
<feColorMatrix type="matrix" values="0 0 0 0 0 0 0 0 0 0 0 0 0 0 0 0 0 0 0.25 0"/>
<feBlend mode="normal" in2="BackgroundImageFix" result="effect1_dropShadow_2_6"/>
<feBlend mode="normal" in="SourceGraphic" in2="effect1_dropShadow_2_6" result="shape"/>
</filter>
</defs>
</svg>
